<?xml version="1.0" encoding="utf-8"?>
<!-- Generator: Adobe Illustrator 21.0.2, SVG Export Plug-In . SVG Version: 6.00 Build 0)  -->
<svg version="1.1" id="_x31_" xmlns="http://www.w3.org/2000/svg" xmlns:xlink="http://www.w3.org/1999/xlink" x="0px" y="0px"
	 viewBox="0 0 512 512" style="enable-background:new 0 0 512 512;" xml:space="preserve">
<style type="text/css">
	.st0{fill-rule:evenodd;clip-rule:evenodd;fill:#246982;stroke:#00151A;stroke-width:20;stroke-miterlimit:22.9256;}
	.st1{fill-rule:evenodd;clip-rule:evenodd;fill:#ECE2C1;}
	
		.st2{fill-rule:evenodd;clip-rule:evenodd;fill:none;stroke:#00151A;stroke-width:10;stroke-linecap:round;stroke-linejoin:round;stroke-miterlimit:22.9256;}
</style>
<path class="st0" d="M256,502c135.5,0,246-110.5,246-246c0-135.5-110.5-246-246-246C120.5,10,10,120.5,10,256
	C10,391.5,120.5,502,256,502z"/>
<g>
	<path class="st1" d="M142.7,138.3l1.4,109.1L69.6,376.1V264.6L142.7,138.3L142.7,138.3z M367.9,264.6l-74.6-128.7v111.6
		l-74.6,128.7V264.6l74.6-128.7v111.6l74.6,128.7V264.6L367.9,264.6z M218.7,264.6l-74.6-128.7v111.6l74.6,128.7V264.6L218.7,264.6z
		 M367.9,264.6l74.6-128.7v111.6l-74.6,128.7V264.6z"/>
	<path class="st2" d="M142.7,138.3l1.4,109.1L69.6,376.1V264.6L142.7,138.3L142.7,138.3z M367.9,264.6l-74.6-128.7v111.6
		l-74.6,128.7V264.6l74.6-128.7v111.6l74.6,128.7 M218.7,264.6v111.6l-74.6-128.7V135.8L218.7,264.6L218.7,264.6z M367.9,264.6
		l74.6-128.7v111.6l-74.6,128.7V264.6z"/>
</g>
</svg>
