<?xml version="1.0" encoding="utf-8"?>
<!-- Generator: Adobe Illustrator 21.0.2, SVG Export Plug-In . SVG Version: 6.00 Build 0)  -->
<svg version="1.0" id="_x31_" xmlns="http://www.w3.org/2000/svg" xmlns:xlink="http://www.w3.org/1999/xlink" x="0px" y="0px"
	 width="512px" height="512px" viewBox="0 0 512 512" enable-background="new 0 0 512 512" xml:space="preserve">
<polyline fill-rule="evenodd" clip-rule="evenodd" fill="#566D78" points="135.5,334.2 315.4,514 514.3,315.1 377.5,178.2 
	377.5,250.6 329.1,334.2 280.7,250.6 228.4,327.4 183.9,250.6 "/>
<path fill-rule="evenodd" clip-rule="evenodd" fill="#ECE2C1" d="M184.6,181.9l0.9,68.7l-47,81.1v-70.3L184.6,181.9L184.6,181.9z
	 M326.5,261.4l-47-81.1v70.3l-47,81.1v-70.3l47-81.1v70.3l47,81.1V261.4L326.5,261.4z M232.5,261.4l-47-81.1v70.3l47,81.1V261.4
	L232.5,261.4z M326.5,261.4l47-81.1v70.3l-47,81.1V261.4z"/>
<path fill-rule="evenodd" clip-rule="evenodd" fill="none" stroke="#00151A" stroke-width="10" stroke-linecap="round" stroke-linejoin="round" stroke-miterlimit="22.9256" d="
	M184.6,181.9l0.9,68.7l-47,81.1v-70.3L184.6,181.9L184.6,181.9z M326.5,261.4l-47-81.1v70.3l-47,81.1v-70.3l47-81.1v70.3l47,81.1
	 M232.5,261.4v70.3l-47-81.1v-70.3L232.5,261.4L232.5,261.4z M326.5,261.4l47-81.1v70.3l-47,81.1V261.4z"/>
</svg>
