<?xml version="1.0" encoding="utf-8"?>
<!-- Generator: Adobe Illustrator 21.0.2, SVG Export Plug-In . SVG Version: 6.00 Build 0)  -->
<svg version="1.0" id="_x31_" xmlns="http://www.w3.org/2000/svg" xmlns:xlink="http://www.w3.org/1999/xlink" x="0px" y="0px"
	 width="512px" height="512px" viewBox="0 0 512 512" enable-background="new 0 0 512 512" xml:space="preserve">
<path fill-rule="evenodd" clip-rule="evenodd" fill="#ECE2C1" d="M108.5,104.1l1.9,141.3L13.8,412.1V267.5L108.5,104.1L108.5,104.1z
	 M400.1,267.5l-96.6-166.7v144.5L207,412.1V267.5l96.6-166.7v144.5l96.6,166.7V267.5L400.1,267.5z M207,267.5l-96.6-166.7v144.5
	L207,412.1V267.5L207,267.5z M400.1,267.5l96.6-166.7v144.5l-96.6,166.7V267.5z"/>
<path fill-rule="evenodd" clip-rule="evenodd" fill="none" stroke="#00151A" stroke-width="10" stroke-linecap="round" stroke-linejoin="round" stroke-miterlimit="22.9256" d="
	M108.5,104.1l1.9,141.3L13.8,412.1V267.5L108.5,104.1L108.5,104.1z M400.1,267.5l-96.6-166.7v144.5L207,412.1V267.5l96.6-166.7
	v144.5l96.6,166.7 M207,267.5v144.5l-96.6-166.7V100.9L207,267.5L207,267.5z M400.1,267.5l96.6-166.7v144.5l-96.6,166.7V267.5z"/>
</svg>
