<?xml version="1.0" encoding="UTF-8"?>
<!DOCTYPE svg PUBLIC "-//W3C//DTD SVG 1.1//EN" "http://www.w3.org/Graphics/SVG/1.1/DTD/svg11.dtd">
<!-- Creator: CorelDRAW 2017 -->
<svg xmlns="http://www.w3.org/2000/svg" xml:space="preserve" width="720px" height="1280px" version="1.1" style="shape-rendering:geometricPrecision; text-rendering:geometricPrecision; image-rendering:optimizeQuality; fill-rule:evenodd; clip-rule:evenodd"
viewBox="0 0 720 1280"
 xmlns:xlink="http://www.w3.org/1999/xlink">
 <defs>
  <style type="text/css">
   <![CDATA[
    .fil1 {fill:#3B3B3B}
    .fil0 {fill:#058AB2}
   ]]>
  </style>
 </defs>
 <g id="Слой_x0020_1">
  <metadata id="CorelCorpID_0Corel-Layer"/>
  <path class="fil0" d="M360 210c-16.57,0 -24.94,0.09 -48.37,5.49 -23.43,5.39 -60.03,21.02 -85.82,40.62 -25.79,19.61 -47.49,44.06 -64.82,72.93 -17.34,28.86 -29.77,61.64 -36.11,96.55 -6.35,34.9 -1.54,74.24 5,108.83 6.54,34.58 51.7,103.92 70.41,121.5 18.72,17.58 40.74,49.06 58.71,101.08 17.97,52.01 35.22,98.57 48.62,152.67 35.82,144.63 56.65,201.83 106.74,0.26 11.12,-44.73 29.54,-106.18 45.3,-153.17 15.77,-47 41.34,-83.28 60.05,-100.84 18.7,-17.56 63.88,-86.93 70.41,-121.5 6.54,-34.58 11.35,-73.93 5,-108.84 -6.34,-34.9 -22.89,-74.53 -36.11,-96.54 -13.22,-22.01 -18.5,-27.8 -29.3,-39.96 -10.81,-12.15 -16.34,-18.39 -35.52,-32.97 -19.19,-14.58 -62.39,-35.23 -85.82,-40.62 -23.43,-5.4 -31.8,-5.49 -48.37,-5.49z"/>
  <polygon class="fil1" points="360,310 380.81,350.64 413.34,318.32 420.38,363.31 461.46,342.47 454.04,387.39 499.65,380.08 478.49,420.54 524.17,427.47 491.35,459.51 532.62,480 491.35,500.49 524.17,532.53 478.49,539.46 499.65,579.92 454.04,572.61 461.46,617.53 420.38,596.69 413.34,641.68 380.81,609.35 360,650 339.19,609.35 306.66,641.68 299.62,596.69 258.54,617.53 265.96,572.61 220.35,579.92 241.51,539.46 195.83,532.53 228.65,500.49 187.38,480 228.65,459.51 195.83,427.47 241.51,420.54 220.35,380.08 265.96,387.39 258.54,342.47 299.62,363.31 306.66,318.32 339.19,350.64 "/>
  <circle class="fil1" cx="360" cy="480" r="147.5"/>
 </g>
</svg>
