<?xml version="1.0" encoding="UTF-8"?>
<!DOCTYPE svg PUBLIC "-//W3C//DTD SVG 1.1//EN" "http://www.w3.org/Graphics/SVG/1.1/DTD/svg11.dtd">
<!-- Creator: CorelDRAW 2017 -->
<svg xmlns="http://www.w3.org/2000/svg" xml:space="preserve" width="2480px" height="3508px" version="1.1" shape-rendering="geometricPrecision" text-rendering="geometricPrecision" image-rendering="optimizeQuality" fill-rule="evenodd" clip-rule="evenodd"
viewBox="0 0 2480 3507.43"
 xmlns:xlink="http://www.w3.org/1999/xlink">
 <g id="Слой_x0020_1">
  <metadata id="CorelCorpID_0Corel-Layer"/>
  <circle fill="#058AB2" cx="1240" cy="1514.68" r="70.3"/>
  <path fill="#8BD1E9" fill-opacity="0.400000" d="M1240 1909.94c146.67,0 265.59,55.25 265.59,123.43 0,68.14 -118.92,123.42 -265.59,123.42 -146.67,0 -265.59,-55.28 -265.59,-123.42 0,-68.18 118.92,-123.43 265.59,-123.43z"/>
  <rect fill="#058AB2" x="1146.26" y="1581.86" width="187.48" height="312.46" rx="35.43" ry="35.43"/>
  <rect fill="#058AB2" x="1177.51" y="1874.84" width="124.98" height="187.33" rx="17.71" ry="21.24"/>
  <rect fill="#058AB2" x="1052.52" y="1700.6" width="108.37" height="31.25" rx="20.48" ry="17.71"/>
  <polygon fill="#1A291C" points="1079.74,1680.47 1095.36,1680.47 1095.36,1702.34 1079.74,1702.34 "/>
  <polygon fill="#1A291C" points="1105.52,1732.02 1071.15,1732.02 1071.15,1791.39 1105.52,1791.39 "/>
 </g>
</svg>
